<?xml version="1.0" encoding="utf-8"?>
<!-- Generator: Adobe Illustrator 15.1.0, SVG Export Plug-In . SVG Version: 6.00 Build 0)  -->
<!DOCTYPE svg PUBLIC "-//W3C//DTD SVG 1.1//EN" "http://www.w3.org/Graphics/SVG/1.1/DTD/svg11.dtd">
<svg version="1.1" id="Layer_1" xmlns="http://www.w3.org/2000/svg" xmlns:xlink="http://www.w3.org/1999/xlink" x="0px" y="0px"
	 width="612px" height="792px" viewBox="0 0 612 792" enable-background="new 0 0 612 792" xml:space="preserve">
<path fill="#171D3F" d="M341.262,702.598c-113.754,0-227.209,0-340.664,0c0-204,0-408,0-612c204,0,408,0,612,0c0,204,0,408,0,612
	C522.252,702.598,431.906,702.598,341.262,702.598"/>
<path fill="#171D3F" d="M530.132,278.933c-2.084-3.316-4.168-6.633-6.302-10.362c-1.479-1.552-2.714-3.498-4.476-4.599
	c-31.123-19.432-62.288-38.797-93.491-58.102c-35.835-22.17-71.716-44.265-107.575-66.397c-8.059-4.974-15.962-4.953-24.09,0.112
	c-23.01,14.341-46.135,28.498-69.194,42.759c-36.409,22.517-72.805,45.057-109.199,67.597c-6.671,4.132-13.45,8.109-19.934,12.519
	c-11.07,7.531-15.917,18.323-15.904,31.577c0.046,49.004,0.021,98.008,0.029,147.012c0.003,22.909-0.053,45.817,0.056,68.726
	c0.067,14.063,5.795,25.101,17.982,32.585c10.408,6.392,20.722,12.937,31.084,19.404c39.177,24.452,78.349,48.911,117.537,73.345
	c18.445,11.5,36.906,22.975,55.425,34.354c1.086,0.667,2.757,0.383,4.494,0.609c0.215-0.07,0.43-0.142,1.143-0.215
	c1.525-0.378,3.194-0.481,4.548-1.189c3.245-1.697,6.38-3.617,9.491-5.557c15.508-9.669,31.01-19.347,46.477-29.082
	c4.257-2.679,8.384-5.564,12.922-8.415c0.455-0.366,0.91-0.731,1.798-1.137c0.556-0.418,1.111-0.835,2.071-1.271
	c4.951-3.07,9.902-6.14,15.096-9.279c0.154-0.086,0.265-0.212,0.726-0.494c0.696-0.382,1.414-0.73,2.086-1.15
	c21.533-13.455,43.067-26.907,64.583-40.391c2.42-1.517,4.727-3.217,7.489-4.896c0.461-0.278,0.923-0.557,1.623-0.891
	c0.154-0.081,0.26-0.203,0.718-0.476c13.791-8.675,27.69-17.182,41.315-26.11c5.098-3.341,9.069-8.021,11.018-14.424
	c0.383-1.3,0.766-2.599,1.499-4.123c0.154-0.618,0.308-1.235,0.632-2.279c0.038-0.455,0.076-0.91,0.374-1.591
	c0.033-0.325,0.067-0.65,0.273-1.403c0.015-0.456,0.029-0.913,0.284-1.655c-0.038-0.717-0.075-1.434-0.038-2.7
	c-0.023-19.118-0.047-38.236,0.007-57.913c-0.021-15.949-0.041-31.898,0.026-48.406c-0.027-12.962-0.055-25.924,0.016-39.444
	c-0.029-11.568-0.06-23.137,0.016-35.261c0.018-10.694,0.088-21.389,0.028-32.083c-0.023-4.249-0.331-8.496-0.411-13.106
	c-0.251-0.407-0.503-0.815-0.811-1.661c-0.334-1.132-0.667-2.265-1.006-3.687C530.49,279.592,530.361,279.454,530.132,278.933"/>
<path fill="#171D3F" d="M570.847,665.997c-1.988,0.991-3.976,1.981-6.828,3.403c8.152,2.031,12.511,7.167,15.208,14.159
	c2.345-7.412,7.248-11.903,14.342-14.485c-7.325-2.411-11.961-7.164-14.359-15.185C577.272,659.161,575.126,663.108,570.847,665.997
	z"/>
<path fill="#F9F9F9" d="M306.237,670.005c-1.399-0.159-3.07,0.125-4.156-0.542c-18.519-11.38-36.979-22.854-55.425-34.354
	c-39.188-24.434-78.36-48.893-117.537-73.345c-10.362-6.468-20.676-13.013-31.084-19.404c-12.188-7.484-17.915-18.521-17.982-32.585
	c-0.108-22.908-0.053-45.816-0.056-68.726c-0.008-49.003,0.017-98.008-0.029-147.012c-0.013-13.254,4.834-24.046,15.904-31.577
	c6.483-4.41,13.263-8.387,19.934-12.519c36.395-22.54,72.79-45.08,109.199-67.597c23.06-14.262,46.185-28.418,69.194-42.759
	c8.128-5.065,16.031-5.086,24.09-0.112c35.859,22.132,71.74,44.227,107.575,66.397c31.203,19.305,62.368,38.67,93.491,58.102
	c1.762,1.101,2.996,3.046,4.302,4.94c-18.777,11.782-37.472,23.078-55.934,34.742c-6.366,4.021-14.019,6.364-18.557,13.048
	c-4.136-6.682-9.668-11.595-16.214-15.668c-34.988-21.774-69.948-43.598-104.778-65.624c-13.729-8.682-27.372-9.981-41.44-1.256
	c-6.326,3.923-12.532,8.042-18.844,11.989c-30.212,18.896-60.479,37.704-90.645,56.676c-10.442,6.568-16.954,16.052-17.741,28.493
	c-0.703,11.114-0.485,22.292-0.504,33.441c-0.057,34.761-0.078,69.523-0.02,104.285c0.023,14.306,5.471,25.714,18.012,33.443
	c24.723,15.238,49.342,30.644,73.994,45.996c18.338,11.42,36.659,22.866,55.051,34.522c0.173,1.297,0.38,2.37,0.378,3.444
	C306.369,614.298,306.301,642.151,306.237,670.005z"/>
<linearGradient id="SVGID_1_" gradientUnits="userSpaceOnUse" x1="306.2419" y1="469.5781" x2="532.8167" y2="469.5781">
	<stop  offset="0" style="stop-color:#0FCEC6"/>
	<stop  offset="0.7333" style="stop-color:#0D868B"/>
</linearGradient>
<path fill="url(#SVGID_1_)" d="M532.713,330.597c0.07-10.972,0.141-21.667,0.081-32.361c-0.023-4.249-0.331-8.496-0.51-12.743
	c-0.263-0.4-0.526-0.8-0.751-1.612c-0.295-1.544-0.628-2.676-0.961-3.809c-0.188-0.082-0.313-0.221-0.408-0.778
	c-2.116-3.678-4.2-6.994-6.482-10.175c-18.803,11.576-37.497,22.872-55.959,34.536c-6.366,4.021-14.019,6.364-18.441,13.148
	c0.251,0.65,0.501,1.301,1.16,2.055c3.748,0.627,6.88,0.459,10.355-0.118c-3.476,0.577-6.607,0.745-10.206,0.246
	c0.729,3.203,1.716,6.38,2.797,9.792c0.213,0.595,0.334,0.956,0.344,1.398c-0.061,1.496-0.009,2.91,0.304,4.69
	c0.217,0.71,0.402,1.328,0.534,1.899c0.127,0.544,0.21,1.074,0.216,1.605c0.058,5.261,0.039,10.522,0.246,15.739
	c0.874-0.854,1.549-1.665,1.908-2.096c-0.359,0.431-1.034,1.241-1.914,2.376c-0.197,13.084-0.191,25.844,0.013,38.56
	c0.846-0.873,1.492-1.702,2.172-2.573c-0.68,0.871-1.326,1.7-2.178,2.854c-0.205,8.582-0.208,16.838-0.209,25.096
	c0.001-8.258,0.004-16.515,0.012-25.054c-0.001-13.04-0.007-25.799-0.008-38.839c-0.003-5.542,0.016-10.804-0.042-16.064
	c-0.006-0.521-0.085-1.041-0.216-1.605c-0.124-0.529-0.29-1.072-0.472-1.641c-0.278,1.077-0.429,2.263-0.428,3.448
	c0.028,43.031-0.072,86.063,0.219,129.092c0.068,10.14-2.606,19.003-8.563,27.455c0.617,1.918,0.902,3.829,2.009,4.859
	c-1.106-1.03-1.392-2.941-2.09-4.682c-9.114,5.855-18.125,12.025-27.27,17.991c-10.149,6.622-20.392,13.102-30.646,19.561
	c-11.854,7.467-23.765,14.844-35.793,22.393c1.525,2.037,3.195,3.939,4.854,5.851c-1.659-1.911-3.329-3.813-4.996-5.719
	c-7.105,4.333-14.224,8.647-21.314,13.006c-7.013,4.312-13.99,8.68-21.003,12.991c-0.834,0.513-1.788,0.829-2.832,1.545
	c-0.036,1.382,0.171,2.455,0.169,3.529c-0.046,27.853-0.114,55.706-0.01,83.593c0.384-0.036,0.599-0.107,0.813-0.178
	c0.191-16.482,0.469-32.965,0.497-49.447c-0.028,16.482-0.306,32.965-0.248,49.446c1.774-0.38,3.443-0.483,4.797-1.191
	c3.245-1.697,6.38-3.617,9.491-5.557c15.508-9.669,31.01-19.347,46.477-29.082c4.257-2.679,8.384-5.564,12.464-8.554
	c-1.448-3.698-4.327-4.927-7.739-5.385c3.412,0.458,6.291,1.687,7.915,5.354c0.737-0.197,1.192-0.563,1.647-0.928
	c0.535-0.445,1.07-0.892,2.055-1.324c5.4-3.057,10.352-6.126,15.302-9.196c0.087-0.144,0.202-0.258,0.657-0.454
	c1.008-0.491,1.726-0.84,2.397-1.26c21.533-13.455,43.067-26.907,64.583-40.391c2.42-1.517,4.727-3.217,6.983-5.018
	c-0.408-0.423-0.772-0.913-1.013-0.858c0.24-0.055,0.604,0.436,1.215,0.826c0.765-0.125,1.227-0.403,1.688-0.682
	c0.087-0.135,0.2-0.243,0.648-0.428c14.1-8.778,27.999-17.285,41.624-26.214c5.098-3.341,9.069-8.021,10.694-14.219
	c-2.97-1.234-1.489-3.799-1.489-5.724c0,1.925-1.48,4.489,1.651,5.621c0.544-1.402,0.927-2.701,1.309-4
	c0.152-0.637,0.304-1.274,0.72-2.208c0.302-0.752,0.34-1.207,0.378-1.662c0.027-0.374,0.055-0.748,0.308-1.375
	c0.24-0.71,0.255-1.167,0.27-1.623c-0.062-0.724-0.122-1.447,0.009-2.578c0.17-19.526,0.146-38.645,0.123-57.763
	c-2.033,0.155-2.604-0.75-3.286-2.767c0.682,2.017,1.253,2.922,3.324,2.487c0.019-16.229-0.002-32.178-0.022-48.127
	c-0.663-0.726-1.712-1.357-1.917-2.196c0.205,0.839,1.254,1.471,1.961,1.917c0.017-13.241-0.011-26.204-0.038-39.166
	c-0.643-0.876-1.405-1.689-1.905-2.641c0.5,0.951,1.263,1.764,1.954,2.362c0.02-11.847-0.011-23.416-0.04-34.984
	c-0.444-0.557-1.275-1.115-1.272-1.669C531.386,329.76,532.217,330.319,532.713,330.597z M468.577,565.412
	c-0.036-0.189-0.071-0.378-0.107-0.567C468.663,565.037,468.62,565.225,468.577,565.412z M364.337,555.73
	c0.319,0.496,0.31,0.893,0.299,1.288c-0.258-0.091-0.516-0.183-0.772-0.273C364.021,556.407,364.179,556.068,364.337,555.73z"/>
<path fill="#109B9B" d="M532.619,514.187c-0.182-0.58-0.242-1.304-0.148-2.16C532.664,512.61,532.701,513.327,532.619,514.187z"/>
<path fill="#109B9B" d="M531,521.085c-0.023-0.523,0.128-1.161,0.458-1.882C531.484,519.737,531.33,520.354,531,521.085z"/>
<path fill="#0D9193" d="M382.736,624.497c0.319-0.425,0.854-0.871,1.638-1.295C384.064,623.643,383.508,624.06,382.736,624.497z"/>
<path fill="#109B9B" d="M532.052,517.215c-0.103-0.261-0.075-0.635,0.092-1.049C532.249,516.452,532.215,516.777,532.052,517.215z"
	/>
<path fill="#109B9B" d="M532.334,285.312c-0.313-0.219-0.576-0.619-0.772-1.211C531.88,284.315,532.132,284.723,532.334,285.312z"/>
<path fill="#0F9698" d="M476.506,566.134c-0.032-0.107,0.081-0.216,0.329-0.347C476.886,565.902,476.781,566.024,476.506,566.134z"
	/>
<path fill="#0D9193" d="M399.998,613.963c-0.035-0.109,0.08-0.224,0.337-0.36C400.384,613.716,400.274,613.842,399.998,613.963z"/>
<path fill="#109B9B" d="M530.57,279.927c-0.186,0.063-0.311-0.076-0.384-0.417C530.361,279.454,530.49,279.592,530.57,279.927z"/>
<path fill="#171D3E" d="M449.166,316.703c0.366,0.75,0.616,1.401,1.016,2.18c1.138,3.305,2.125,6.482,3.115,10.046
	c0.109,0.701,0.216,1.015,0.322,1.329c0.052,1.414,0.104,2.828,0.218,4.5c-0.018,1.443-0.168,2.629-0.167,3.814
	c0.028,43.031-0.072,86.063,0.219,129.092c0.068,10.14-2.606,19.003-8.606,27.229c-9.151,6.259-18.162,12.429-27.307,18.395
	c-10.149,6.622-20.392,13.102-30.646,19.561c-11.854,7.467-23.765,14.844-35.793,22.393c-7.247,4.465-14.365,8.779-21.456,13.138
	c-7.013,4.312-13.99,8.68-21.003,12.991c-0.834,0.513-1.788,0.829-2.896,1.322c-18.537-11.349-36.858-22.795-55.196-34.215
	c-24.652-15.353-49.271-30.758-73.994-45.996c-12.541-7.729-17.988-19.138-18.012-33.443c-0.059-34.762-0.037-69.523,0.02-104.285
	c0.019-11.15-0.199-22.328,0.504-33.441c0.787-12.44,7.299-21.925,17.741-28.493c30.165-18.972,60.433-37.78,90.645-56.676
	c6.312-3.948,12.518-8.066,18.844-11.989c14.068-8.725,27.711-7.426,41.44,1.256c34.83,22.025,69.79,43.849,104.778,65.624
	C439.498,305.108,445.031,310.021,449.166,316.703 M395.696,456.4c2.858-0.971,3.606-2.894,3.594-5.918
	c-0.122-30.451-0.061-60.903-0.081-91.354c0-1.257-0.292-2.514-0.359-4.233c-0.639-0.773-1.133-1.774-1.938-2.283
	c-5.449-3.446-10.971-6.776-16.457-10.165c-23.656-14.615-47.336-29.195-70.921-43.926c-2.306-1.44-3.798-1.465-6.084-0.031
	c-16.678,10.46-33.457,20.758-50.205,31.107c-12.435,7.684-24.882,15.346-37.273,23.098c-0.833,0.521-1.245,1.715-2.017,3.148
	c-0.036,32.231-0.092,64.461-0.03,96.692c0.002,1.108,0.916,2.591,1.858,3.254c3.41,2.401,6.99,4.565,10.549,6.751
	c24.394,14.98,48.788,29.962,73.217,44.885c2.243,1.37,4.734,2.337,7.55,3.455c6.663-3.924,13.378-7.76,19.978-11.787
	c17.048-10.403,34.073-20.846,51.048-31.37C383.935,464.118,389.569,460.225,395.696,456.4z"/>
<path fill="#0F9698" d="M364.502,555.78c0.154,0.446,0.145,0.843,0.134,1.238c-0.258-0.091-0.516-0.183-0.772-0.273
	C364.021,556.407,364.179,556.068,364.502,555.78z"/>
<path fill="#0F9698" d="M468.588,564.847c0.075,0.19,0.032,0.378-0.011,0.565C468.541,565.223,468.506,565.034,468.588,564.847z"/>
<path fill="#10A2A1" d="M453.732,330.176c-0.219-0.232-0.325-0.546-0.342-1.012C453.601,329.372,453.722,329.733,453.732,330.176z"
	/>
<path fill="#0FCEC6" d="M214.116,355.289c0.608-0.881,1.021-2.074,1.854-2.596c12.392-7.751,24.839-15.414,37.273-23.098
	c16.748-10.349,33.527-20.646,50.205-31.107c2.286-1.434,3.778-1.409,6.084,0.031c23.585,14.731,47.265,29.311,70.921,43.926
	c5.486,3.389,11.008,6.719,16.457,10.165c0.806,0.509,1.3,1.51,1.683,2.574c-1.064,0.663-1.92,0.958-2.675,1.419
	c-8.695,5.313-17.383,10.64-26.059,15.986c-12.312,7.587-24.609,15.198-36.918,22.792c-8.773,5.413-17.555,10.814-26.539,16.172
	c-6.719-4.023-13.247-7.971-19.738-11.98c-12.738-7.87-25.442-15.795-38.187-23.656c-8.863-5.467-17.758-10.885-26.664-16.283
	C219.295,358.109,216.685,356.734,214.116,355.289z"/>
<path fill="#0D868B" d="M214.035,355.565c2.649,1.168,5.26,2.544,7.778,4.07c8.906,5.397,17.801,10.815,26.664,16.283
	c12.744,7.861,25.448,15.786,38.187,23.656c6.491,4.01,13.02,7.957,19.734,12.254c0.203,8.087,0.202,15.853,0.2,23.898
	c0.02,25.249,0.038,50.219,0.058,75.188c-2.375-1.153-4.866-2.12-7.109-3.49c-24.429-14.923-48.823-29.904-73.217-44.885
	c-3.559-2.186-7.139-4.35-10.549-6.751c-0.942-0.663-1.856-2.146-1.858-3.254C213.862,420.303,213.917,388.073,214.035,355.565z"/>
<path fill="#171D3E" d="M399.208,359.128c0-1.257-0.292-2.514-0.659-3.711c-1.021,0.432-1.876,0.727-2.631,1.188
	c-8.695,5.313-17.383,10.64-26.059,15.986c-12.312,7.587-24.609,15.198-36.918,22.792c-8.773,5.413-17.555,10.814-26.335,16.494
	c-0.005,8.039-0.006,15.805-0.008,23.571c0.359-0.948,0.719-1.896,1.078-2.844c0.154-0.412,0.309-0.82,0.465-1.225
	c-0.157,0.407-0.31,0.816-0.465,1.225c-0.361,0.969-0.718,1.977-1.078,3.123c0.02,25.249,0.038,50.219,0.278,75.17
	c6.883-3.941,13.598-7.777,20.197-11.805c17.048-10.403,34.073-20.846,51.048-31.37c5.813-3.604,11.446-7.497,16.916-11.29
	c-0.971-0.326-1.73-0.556-2.414-0.925c0.684,0.369,1.443,0.599,2.62,0.893c3.31-0.97,4.058-2.893,4.045-5.917
	C399.167,420.031,399.229,389.58,399.208,359.128z"/>
</svg>
